<svg xmlns="http://www.w3.org/2000/svg" viewBox="0 0 334.86 73.13"><defs><style>.cls-1{fill:red;}</style></defs><g id="Слой_2" data-name="Слой 2"><g id="Слой_1-2" data-name="Слой 1"><path class="cls-1" d="M26,44.79a3.2,3.2,0,0,1-2.43-1.13,4.58,4.58,0,0,1-.84-3A8.75,8.75,0,0,1,24,35.9a4.52,4.52,0,0,1,3.24-2.27,3.15,3.15,0,0,1,3.34,1.69,11.37,11.37,0,0,1,1.19,5.79A42.08,42.08,0,0,1,30.53,51a44.09,44.09,0,0,1-3.48,9.55A26,26,0,0,1,22,67.82a10.68,10.68,0,0,1-5.85,3,9.44,9.44,0,0,1-4-.15,5.93,5.93,0,0,1-2.86-1.8,23,23,0,0,1-4.36,2.66A22.79,22.79,0,0,1,0,73.13L1.28,67.6a15.63,15.63,0,0,0,3.14-1A11.15,11.15,0,0,0,6.92,65a17.46,17.46,0,0,1-.57-2.65,22.18,22.18,0,0,1-.19-3A32.69,32.69,0,0,1,7.61,50a36,36,0,0,1,4-8.92,23.91,23.91,0,0,1,5.27-6,12.15,12.15,0,0,1,5.74-2.81,1.39,1.39,0,0,1,1.1.22,1.13,1.13,0,0,1,.4,1,6.53,6.53,0,0,1-1.55,2.95c-1,1.39-1.83,2.55-2.39,3.47a54,54,0,0,0-5.06,11,33.13,33.13,0,0,0-1.75,10,5.69,5.69,0,0,0,.78,3.28,2.1,2.1,0,0,0,2.16.9q3.3-.47,6.43-6.72A30.86,30.86,0,0,0,26,44.79Z"/><path class="cls-1" d="M29.07,68.89c.51-2.2.77-3.3,1.28-5.49A14.94,14.94,0,0,0,34,62.22a14.61,14.61,0,0,0,3.21-2.09,13.9,13.9,0,0,1-1.14-3.51A25.55,25.55,0,0,1,35.71,52a26.52,26.52,0,0,1,5-15.65q5-7,11.42-7.75a6.67,6.67,0,0,1,5.24,1.32,5.85,5.85,0,0,1,1.95,4.7,6.16,6.16,0,0,1-1,3.51A3.28,3.28,0,0,1,56,39.74a1.14,1.14,0,0,1-.73-.1c-.14-.11-.21-.39-.21-.87a4,4,0,0,0-.67-2.6,2.33,2.33,0,0,0-2.16-.64q-3.26.36-5.84,4.95a20.42,20.42,0,0,0-2.59,10.23c0,3.76,1,6.4,2.88,7.94s5,2.12,9.16,1.75l-1.23,5.45a4.38,4.38,0,0,0-1.09.28l-.16,0a24.61,24.61,0,0,1-7.73-.25,11.69,11.69,0,0,1-5.46-2.58,18.66,18.66,0,0,1-4.95,3.62A21.17,21.17,0,0,1,29.07,68.89Z"/><path class="cls-1" d="M54.59,65.85l1.23-5.45a9.17,9.17,0,0,0,5.62-3.55q2-2.74,3.57-9.63c1.08-4.79,1.62-7.18,2.71-12l-3.13.29a1.46,1.46,0,0,1-1-.12.87.87,0,0,1-.26-.74,1.91,1.91,0,0,1,0-.2c0-.08,0-.24.11-.48.21-.78.31-1.17.52-1.94A1.76,1.76,0,0,1,64.67,31a4.27,4.27,0,0,1,1.85-.46l2.39-.22c1.27-5.23,1.9-7.84,3.17-13.06.17-.7.37-1.66.61-2.89.67-3.47,2-5.3,4-5.47A6.68,6.68,0,0,1,80,9.25,1.82,1.82,0,0,1,81.22,11a13.11,13.11,0,0,1-.74,3.1c-.26.81-.46,1.45-.58,1.94L76.18,29.65c2.17-.19,3.26-.28,5.43-.45a1.55,1.55,0,0,1,.94.14.72.72,0,0,1,.32.66c0,.13,0,.25,0,.36s0,.21,0,.32l-.55,1.93a1.81,1.81,0,0,1-.72,1.12,4,4,0,0,1-1.81.47c-1.9.15-2.85.23-4.75.4-1.26,5.2-1.9,7.8-3.16,13q-.55,2.18-.81,3.75a17,17,0,0,0-.26,2.57,3.69,3.69,0,0,0,1.75,3.35,9.48,9.48,0,0,0,5.2,1c-.51,2.17-.76,3.26-1.26,5.43l-.78.07a18.11,18.11,0,0,1-7.2-.6A7.2,7.2,0,0,1,64.27,60,19.36,19.36,0,0,1,59.7,63.9,14.34,14.34,0,0,1,54.59,65.85Z"/><path class="cls-1" d="M102.74,37.32A3.56,3.56,0,0,1,100.28,36a4.82,4.82,0,0,1-.84-3,8.23,8.23,0,0,1,1.29-4.71,4.17,4.17,0,0,1,3.28-2,3.47,3.47,0,0,1,3.37,1.93,11.81,11.81,0,0,1,1.2,5.88,40.63,40.63,0,0,1-1.25,9.79,40.52,40.52,0,0,1-3.52,9.28,23.32,23.32,0,0,1-5.15,6.92,10,10,0,0,1-5.92,2.59,9.85,9.85,0,0,1-4-.44,6.69,6.69,0,0,1-2.9-2,21.3,21.3,0,0,1-4.41,2.34,21.57,21.57,0,0,1-5,1.22c.51-2.17.77-3.26,1.29-5.43a15.21,15.21,0,0,0,3.18-.81,10,10,0,0,0,2.54-1.43,17.06,17.06,0,0,1-.58-2.69,22.44,22.44,0,0,1-.19-3,31.34,31.34,0,0,1,1.47-9.18,33.17,33.17,0,0,1,4-8.62,21.6,21.6,0,0,1,5.34-5.63,11.43,11.43,0,0,1,5.8-2.39,1.53,1.53,0,0,1,1.12.3,1.22,1.22,0,0,1,.4,1c0,.58-.52,1.52-1.57,2.84a38.76,38.76,0,0,0-2.41,3.29,49.34,49.34,0,0,0-5.12,10.65A31.81,31.81,0,0,0,90,52.51a5.91,5.91,0,0,0,.8,3.34,2.27,2.27,0,0,0,2.18,1.06q3.33-.22,6.51-6.25A29.22,29.22,0,0,0,102.74,37.32Z"/><path class="cls-1" d="M107.12,56.25a14,14,0,0,0,3.63-1,9.62,9.62,0,0,0,2.82-1.76c-.07-.86-.1-1.55-.11-2.06s0-1,0-1.44q0-3.54,1.91-12.82t5.06-20Q123.7,6,125.54,3.06T129.92,0a3.29,3.29,0,0,1,2.86,1.4,6.39,6.39,0,0,1,1.1,3.91,21.49,21.49,0,0,1-1.69,8.19,32.93,32.93,0,0,1-5,8.23q-3,10.36-4.68,18.3a62.2,62.2,0,0,0-1.71,11.2,3.92,3.92,0,0,0,.59,2.34,1.84,1.84,0,0,0,1.68.76c2-.09,4-1.92,5.84-5.51A29.23,29.23,0,0,0,132,36.26a4.63,4.63,0,0,1-3.41-1.47A5.82,5.82,0,0,1,127.45,31a7.35,7.35,0,0,1,1.27-4.45,4.19,4.19,0,0,1,3.37-1.79,4.67,4.67,0,0,1,4.27,2.69A14.15,14.15,0,0,1,138,34.7a33.54,33.54,0,0,1-4.91,18.19q-4.92,7.84-11.28,8.11a8.69,8.69,0,0,1-3.65-.61,7.31,7.31,0,0,1-2.87-2,20.41,20.41,0,0,1-4.43,2.22,21.15,21.15,0,0,1-5,1.08C106.36,59.49,106.61,58.41,107.12,56.25Z"/><path class="cls-1" d="M148.23,56.1A32.73,32.73,0,0,1,141.92,59a26.53,26.53,0,0,1-6.38,1.31l1.3-5.35a22.64,22.64,0,0,0,4.13-.86,20.6,20.6,0,0,0,3.69-1.58,14.37,14.37,0,0,1-1.82-4.46,26.14,26.14,0,0,1-.58-5.89,22.42,22.42,0,0,1,4.43-13.81q4.44-5.92,10.48-6a6.36,6.36,0,0,1,5.34,2.42,10.45,10.45,0,0,1,2,6.71,23.39,23.39,0,0,1-2.81,10.28,34.79,34.79,0,0,1-7.49,10,8,8,0,0,0,3,2.16,10.67,10.67,0,0,0,3.95.62h.45l-1.27,5.32h-.87A19.52,19.52,0,0,1,153,59,12.38,12.38,0,0,1,148.23,56.1Zm3.35-8.37a21.76,21.76,0,0,0,5.68-7.3,18.22,18.22,0,0,0,2.31-8,4.15,4.15,0,0,0-.68-2.57,2.32,2.32,0,0,0-2-.87q-2.7,0-4.78,3.9a18.71,18.71,0,0,0-2.08,9,13.46,13.46,0,0,0,.36,3.33A7.46,7.46,0,0,0,151.58,47.73Z"/><path class="cls-1" d="M160.22,59.89l1.27-5.32q4-.85,7.37-6.66t7.73-20.2a6.08,6.08,0,0,1-1.1-2,8.18,8.18,0,0,1-.36-2.53,8.14,8.14,0,0,1,1.28-4.7,3.79,3.79,0,0,1,3.24-1.84,3.61,3.61,0,0,1,2.82,1.22,4.64,4.64,0,0,1,1,3.17,8.75,8.75,0,0,1-.16,1.75,8.1,8.1,0,0,1-.52,1.63c1.1.85,2.53,1.89,4.29,3.1q4.77,3.21,4.77,6.29c0,1.73-.86,4.77-2.6,9.12s-2.59,7.32-2.59,8.9a2.2,2.2,0,0,0,.89,2c.59.4,2.14.75,4.63,1.07L191,60.13l-1,0c-3.9-.09-6.71-.67-8.42-1.78A5.9,5.9,0,0,1,179,53q0-3.27,2.45-9.69t2.45-8.22a2.75,2.75,0,0,0-.84-1.8,18.88,18.88,0,0,0-2.86-2.39q-4.35,15.21-9,21.86T160.22,59.89Z"/><path class="cls-1" d="M198.68,56.46a9.7,9.7,0,0,1-3.33,2.65,10.92,10.92,0,0,1-4.3,1c.5-2.12.76-3.18,1.26-5.29a7,7,0,0,0,5.48-3.29q2.19-3.12,4.26-10.94c2.72-10.19,4.08-15.28,6.79-25.45.5-1.82,1-4.09,1.62-6.79q1.51-7,5.29-6.87a10,10,0,0,1,3.52.58,1.54,1.54,0,0,1,.92,1.48,20.14,20.14,0,0,1-1.26,4.79q-.52,1.47-.78,2.28-5.29,16-10.58,32.1,5.07-9.78,9.27-14.17t8.22-4.18a4.17,4.17,0,0,1,3.17,1.5,5.71,5.71,0,0,1,1.14,3.75q0,2.64-3.8,13.93c-.31.95-.46,1.42-.77,2.36a41.7,41.7,0,0,0-1.28,4.35,14.26,14.26,0,0,0-.47,2.89,2.41,2.41,0,0,0,.9,2.1,9.06,9.06,0,0,0,3.6,1l-1.23,5.25-.75,0q-5.31-.29-7.79-2.13a6.46,6.46,0,0,1-2.48-5.55,21.79,21.79,0,0,1,.94-5.16q.93-3.47,2.85-8.81c.1-.29.16-.44.26-.74A27,27,0,0,0,221,33.79a1.55,1.55,0,0,0-.27-1,1.15,1.15,0,0,0-.86-.36c-1.28-.06-3.25,1.81-5.92,5.64a60.82,60.82,0,0,0-7,14.06c-.41,1.11-.85,2.47-1.33,4.08-.91,3-2.68,4.4-5.32,4.32a4.06,4.06,0,0,1-1.82-.35,1.15,1.15,0,0,1-.52-1.06,4.1,4.1,0,0,1,.18-1A16.46,16.46,0,0,1,198.68,56.46Z"/><path class="cls-1" d="M252.61,38.76a4.28,4.28,0,0,1-2.46-1.65,5.39,5.39,0,0,1-.84-3.14,7.38,7.38,0,0,1,1.29-4.53,3.55,3.55,0,0,1,3.27-1.57,4.09,4.09,0,0,1,3.36,2.4,12.88,12.88,0,0,1,1.2,6.06,38.4,38.4,0,0,1-1.25,9.6,35.7,35.7,0,0,1-3.5,8.8,19.16,19.16,0,0,1-5.15,6.19,8.79,8.79,0,0,1-5.92,1.75,10.64,10.64,0,0,1-4-1,8.12,8.12,0,0,1-2.9-2.42A18.07,18.07,0,0,1,231.29,61a20.21,20.21,0,0,1-5,.52c.52-2.1.78-3.15,1.29-5.25a14,14,0,0,0,3.2-.36,8.75,8.75,0,0,0,2.54-1.07,18.48,18.48,0,0,1-.58-2.78,22.91,22.91,0,0,1-.2-3.06A29,29,0,0,1,234,40a27.8,27.8,0,0,1,4-8.06,17.28,17.28,0,0,1,5.34-4.87,10.1,10.1,0,0,1,5.79-1.58,1.67,1.67,0,0,1,1.12.46,1.39,1.39,0,0,1,.4,1c0,.58-.52,1.45-1.57,2.62a34.69,34.69,0,0,0-2.41,2.95,41.88,41.88,0,0,0-5.11,9.94,29.27,29.27,0,0,0-1.78,9.67,6.47,6.47,0,0,0,.79,3.44A2.69,2.69,0,0,0,242.81,57q3.33.24,6.5-5.33A26.61,26.61,0,0,0,252.61,38.76Z"/><path class="cls-1" d="M255.74,63.52c.5-2.08.74-3.13,1.23-5.21,2.27.08,4.18-1,5.75-3.36s3-6.21,4.3-11.63c.58-2.46,1.19-5.47,1.84-9q1.35-7.47,4.13-7.2a13.62,13.62,0,0,1,3.7.75c.73.33,1.1.78,1.1,1.36a50,50,0,0,1-2,6.55q-2,5.88-3.58,11.44,5.35-10,9-14.08c2.46-2.71,4.79-3.93,7-3.68a4.37,4.37,0,0,1,3.07,1.68,5.87,5.87,0,0,1,1.14,3.74,18,18,0,0,1-1,4.77q-1,3.2-3.28,9,6.27-11.06,9.55-14.33t6.64-2.84a5.48,5.48,0,0,1,3.64,1.9,6,6,0,0,1,1.33,4q0,2.81-4.07,14.51c-.21.61-.31.91-.51,1.51a35.51,35.51,0,0,0-1.19,4.12,15.25,15.25,0,0,0-.45,2.92,2.55,2.55,0,0,0,.95,2.15,9.42,9.42,0,0,0,3.54,1.28L306.37,69l-.38,0c-3.7-.48-6.4-1.39-8.08-2.72a6.88,6.88,0,0,1-2.52-5.71q0-2.52,2.6-10c.5-1.43.88-2.54,1.16-3.32.79-2.4,1.32-4,1.57-5a8.41,8.41,0,0,0,.39-2,2,2,0,0,0-.19-1,.83.83,0,0,0-.65-.38c-.94-.12-2.71,1.69-5.33,5.43a76.42,76.42,0,0,0-7.27,13.39q-.9,2.14-1.83,5-1.15,3.52-3.83,3.24a11.66,11.66,0,0,1-3.35-.71,1.47,1.47,0,0,1-.94-1.36,25.44,25.44,0,0,1,1.5-4.77q1.5-4,2.47-7,2.51-7.44,3.17-9.88a15.2,15.2,0,0,0,.66-3.57,1.86,1.86,0,0,0-.34-1.18,1.3,1.3,0,0,0-.92-.49q-1.61-.18-5.52,5.29a52.83,52.83,0,0,0-6.43,12.17q-1.1,2.89-2.16,6T269,63.76a2,2,0,0,1-1.27.72,10.25,10.25,0,0,1-2.76,0,4.2,4.2,0,0,1-1.79-.45,1.13,1.13,0,0,1-.54-1,8.93,8.93,0,0,1,.59-2.23,3.77,3.77,0,0,0,.12-.42A8.92,8.92,0,0,1,260,62.77,10.42,10.42,0,0,1,255.74,63.52Z"/><path class="cls-1" d="M318.9,66.75a27.39,27.39,0,0,1-6.23,1.92,24.15,24.15,0,0,1-6.3.29l1.28-5.15a20,20,0,0,0,4.09-.19,17.67,17.67,0,0,0,3.64-1,16.89,16.89,0,0,1-1.8-4.75,28.14,28.14,0,0,1-.57-6,19.64,19.64,0,0,1,4.37-13.09q4.37-5.22,10.31-4.31a7.59,7.59,0,0,1,5.25,3.28,12.07,12.07,0,0,1,1.92,7,20.9,20.9,0,0,1-2.75,9.82,27.38,27.38,0,0,1-7.36,8.78A9.91,9.91,0,0,0,327.67,66a11.57,11.57,0,0,0,3.88,1.25l.44.07c-.49,2.05-.74,3.08-1.24,5.13l-.86-.14a21.2,21.2,0,0,1-6.29-1.92A15,15,0,0,1,318.9,66.75Zm3.29-7.83a17.19,17.19,0,0,0,5.59-6.39,16.31,16.31,0,0,0,2.27-7.59,4.76,4.76,0,0,0-.67-2.68,2.76,2.76,0,0,0-1.95-1.19c-1.77-.27-3.33.78-4.7,3.14a17,17,0,0,0-2,8.62,14.16,14.16,0,0,0,.35,3.38A8.9,8.9,0,0,0,322.19,58.92Z"/></g></g></svg>