<svg xmlns="http://www.w3.org/2000/svg" viewBox="0 0 341.19 55.16"><defs><style>.cls-1{fill:red;}</style></defs><g id="Слой_2" data-name="Слой 2"><g id="Слой_1-2" data-name="Слой 1"><path class="cls-1" d="M26.14,34.76a4.11,4.11,0,0,1-2.45-.37,1.79,1.79,0,0,1-.84-1.66,4.28,4.28,0,0,1,1.29-3A6,6,0,0,1,27.41,28a3.8,3.8,0,0,1,3.37.61A4.13,4.13,0,0,1,32,31.87a16.56,16.56,0,0,1-1.25,6A24.35,24.35,0,0,1,27.21,44a22.9,22.9,0,0,1-5.14,5,16.72,16.72,0,0,1-5.9,2.56,16.46,16.46,0,0,1-4,.44,6.57,6.57,0,0,1-2.87-.68,34.48,34.48,0,0,1-4.38,2.2A38.6,38.6,0,0,1,0,55.16l1.28-3.47a27.43,27.43,0,0,0,3.15-1.08,15.17,15.17,0,0,0,2.51-1.32,6,6,0,0,1-.57-1.5A7.57,7.57,0,0,1,6.18,46a13.76,13.76,0,0,1,1.45-5.74,23.28,23.28,0,0,1,4-5.86,24.21,24.21,0,0,1,5.31-4.29,18.79,18.79,0,0,1,5.78-2.42,2.18,2.18,0,0,1,1.11,0,.54.54,0,0,1,.41.52c0,.34-.53,1-1.57,2s-1.85,1.75-2.41,2.37a34.54,34.54,0,0,0-5.09,7.24A14.07,14.07,0,0,0,13.4,46a2.08,2.08,0,0,0,.79,1.84,2.68,2.68,0,0,0,2.17.25c2.21-.48,4.38-2.09,6.49-4.83A14.5,14.5,0,0,0,26.14,34.76Z"/><path class="cls-1" d="M29.25,48.73l1.3-3.42a25.86,25.86,0,0,0,3.7-1.13,21,21,0,0,0,3.25-1.62,5.31,5.31,0,0,1-1.16-2A8.57,8.57,0,0,1,36,37.89c0-3.41,1.68-6.72,5-9.88a21.75,21.75,0,0,1,11.58-5.82,10,10,0,0,1,5.32.27,2.74,2.74,0,0,1,2,2.62,3,3,0,0,1-1,2.18,4.33,4.33,0,0,1-2.41,1.18,1.87,1.87,0,0,1-.74,0c-.14-.05-.21-.22-.21-.5a1.59,1.59,0,0,0-.69-1.49,3.42,3.42,0,0,0-2.19-.16,10,10,0,0,0-5.93,3.55,9.55,9.55,0,0,0-2.62,6.37A4.25,4.25,0,0,0,47,40.65c1.94.72,5,.74,9.29.12-.49,1.35-.74,2-1.24,3.36a7.52,7.52,0,0,0-1.11.28l-.17,0a43.66,43.66,0,0,1-7.84.65,15.83,15.83,0,0,1-5.53-.94,25.39,25.39,0,0,1-5,2.71A36.66,36.66,0,0,1,29.25,48.73Z"/><path class="cls-1" d="M55.11,44.13l1.25-3.37a12.74,12.74,0,0,0,5.72-2.64,15.17,15.17,0,0,0,3.62-6.06c1.11-3,1.66-4.42,2.76-7.36-1.27.17-1.91.26-3.18.45a2.46,2.46,0,0,1-1,0,.4.4,0,0,1-.26-.42.3.3,0,0,1,0-.12,1.69,1.69,0,0,1,.11-.3l.53-1.2a1.36,1.36,0,0,1,.67-.71A7.46,7.46,0,0,1,67.25,22l2.43-.34c1.29-3.22,1.93-4.83,3.22-8,.18-.43.39-1,.63-1.78a4.71,4.71,0,0,1,4.08-3.58,11.36,11.36,0,0,1,3.4,0c.81.16,1.22.47,1.22.94a5.48,5.48,0,0,1-.76,1.9c-.26.5-.46.9-.59,1.2-1.52,3.36-2.28,5-3.79,8.41,2.21-.29,3.32-.42,5.54-.69a2.9,2.9,0,0,1,1,0,.38.38,0,0,1,.33.38,1.34,1.34,0,0,1,0,.21c0,.06,0,.13-.05.19-.23.48-.34.72-.56,1.2a1.46,1.46,0,0,1-.73.72,7.06,7.06,0,0,1-1.85.41l-4.84.61c-1.29,3.2-1.94,4.8-3.23,8a18.89,18.89,0,0,0-.82,2.3,6.06,6.06,0,0,0-.27,1.55c0,.89.6,1.51,1.78,1.85a15.72,15.72,0,0,0,5.3.21L77.35,41l-.79.1a32,32,0,0,1-7.34.24A7.44,7.44,0,0,1,65,39.75a23.89,23.89,0,0,1-4.64,2.73A23.61,23.61,0,0,1,55.11,44.13Z"/><path class="cls-1" d="M104.23,23.43a4.53,4.53,0,0,1-2.52-.63,2,2,0,0,1-.86-1.75,3.79,3.79,0,0,1,1.32-2.89,5.54,5.54,0,0,1,3.35-1.39,4.23,4.23,0,0,1,3.45,1,4.53,4.53,0,0,1,1.23,3.44,15.3,15.3,0,0,1-1.28,5.9,21.36,21.36,0,0,1-3.6,5.72,19.69,19.69,0,0,1-5.27,4.41A15.7,15.7,0,0,1,94,39.12a17.31,17.31,0,0,1-4.08,0,7.4,7.4,0,0,1-3-1,31,31,0,0,1-4.51,1.72A38.06,38.06,0,0,1,77.35,41l1.32-3.34a25.9,25.9,0,0,0,3.25-.73,14.56,14.56,0,0,0,2.59-1,6.15,6.15,0,0,1-.6-1.56,7.94,7.94,0,0,1-.2-1.8,12.29,12.29,0,0,1,1.51-5.57,19.59,19.59,0,0,1,4.11-5.42,21.33,21.33,0,0,1,5.46-3.71A17.9,17.9,0,0,1,100.71,16a2.34,2.34,0,0,1,1.15.12.6.6,0,0,1,.41.56c0,.34-.53.93-1.61,1.78S98.77,20,98.2,20.57A29.56,29.56,0,0,0,93,27.24a12.67,12.67,0,0,0-1.82,6A2.31,2.31,0,0,0,92,35.2a3,3,0,0,0,2.23.49q3.41-.34,6.66-4.12A12.89,12.89,0,0,0,104.23,23.43Z"/><path class="cls-1" d="M108.71,34.48a25,25,0,0,0,3.71-.75,13.08,13.08,0,0,0,2.89-1.19c-.06-.51-.1-.92-.11-1.22s0-.59,0-.85q0-2.12,2-7.73a109.82,109.82,0,0,1,5.19-12.12c2.24-4.53,4-7.42,5.25-8.64a6.82,6.82,0,0,1,4.5-2A4.41,4.41,0,0,1,135,.76a2.69,2.69,0,0,1,1.13,2.29A8.73,8.73,0,0,1,134.41,8a22.83,22.83,0,0,1-5.13,5.07,119.66,119.66,0,0,0-4.81,11.06,23.82,23.82,0,0,0-1.74,6.74,1.59,1.59,0,0,0,.6,1.37,2.49,2.49,0,0,0,1.73.39q3.12-.2,6-3.49a12.46,12.46,0,0,0,3.13-7.58,6.53,6.53,0,0,1-3.5-.77,2.53,2.53,0,0,1-1.13-2.25,3.34,3.34,0,0,1,1.3-2.69,5.74,5.74,0,0,1,3.46-1.17,5.47,5.47,0,0,1,6.06,5.78,14.8,14.8,0,0,1-5,11,18,18,0,0,1-11.57,5.21,14.26,14.26,0,0,1-3.74-.21,8.16,8.16,0,0,1-2.94-1.1,29.91,29.91,0,0,1-4.54,1.53,36.33,36.33,0,0,1-5.13.9Z"/><path class="cls-1" d="M150.88,33a49,49,0,0,1-6.49,1.86,47,47,0,0,1-6.55.94l1.33-3.22a40.16,40.16,0,0,0,4.25-.61,31.55,31.55,0,0,0,3.79-1,6.89,6.89,0,0,1-1.87-2.61,9.29,9.29,0,0,1-.6-3.5c0-3.13,1.52-5.91,4.55-8.31a17.27,17.27,0,0,1,10.76-3.71,9,9,0,0,1,5.49,1.41,4.67,4.67,0,0,1,2,4c0,1.85-1,3.89-2.89,6.14a27.34,27.34,0,0,1-7.69,6A9.4,9.4,0,0,0,160,31.58a17.67,17.67,0,0,0,4.06.34h.46l-1.3,3.18h-.9a35,35,0,0,1-6.57-.47A16.13,16.13,0,0,1,150.88,33Zm3.43-5a17.78,17.78,0,0,0,5.84-4.41c1.58-1.83,2.37-3.41,2.37-4.76a1.81,1.81,0,0,0-.7-1.53,3.38,3.38,0,0,0-2-.5,6.62,6.62,0,0,0-4.9,2.38,7.67,7.67,0,0,0-2.14,5.36,4.93,4.93,0,0,0,.37,2A3.86,3.86,0,0,0,154.31,27.94Z"/><path class="cls-1" d="M163.18,35.1c.53-1.27.79-1.91,1.31-3.18a12.85,12.85,0,0,0,7.57-4q3.44-3.45,7.94-12a3.76,3.76,0,0,1-1.13-1.21,3,3,0,0,1-.37-1.51,3.47,3.47,0,0,1,1.32-2.79,4.9,4.9,0,0,1,3.32-1.07,5.37,5.37,0,0,1,2.9.76,2.22,2.22,0,0,1,1.07,1.9,3.11,3.11,0,0,1-.17,1,3.74,3.74,0,0,1-.53,1q1.69.78,4.4,1.91c3.27,1.33,4.9,2.62,4.9,3.84q0,1.55-2.67,5.38t-2.66,5.25a1.25,1.25,0,0,0,.91,1.21,23.38,23.38,0,0,0,4.76.72l-1.31,3.11-1,0c-4-.12-6.88-.51-8.63-1.19s-2.64-1.75-2.64-3.2.84-3.22,2.52-5.74,2.52-4.15,2.52-4.87q0-.51-.87-1.08a21,21,0,0,0-2.93-1.46q-4.49,9-9.23,13A18.67,18.67,0,0,1,163.18,35.1Z"/><path class="cls-1" d="M202.68,33.46A11.08,11.08,0,0,1,199.26,35a18.45,18.45,0,0,1-4.42.51c.53-1.25.79-1.88,1.31-3.13a8.76,8.76,0,0,0,5.61-1.82,17.89,17.89,0,0,0,4.38-6.4l7-14.94c.51-1.07,1.07-2.4,1.67-4,1-2.75,2.85-4,5.42-3.88a17,17,0,0,1,3.6.5c.64.21,1,.52,1,.92a7.91,7.91,0,0,1-1.29,2.8c-.36.57-.63,1-.8,1.32-4.34,7.45-6.51,11.2-10.85,18.71a41.24,41.24,0,0,1,9.5-8.08,14.54,14.54,0,0,1,8.42-2.11A6.11,6.11,0,0,1,233,16.41a2.76,2.76,0,0,1,1.16,2.29q0,1.57-3.89,8.11c-.31.54-.47.82-.79,1.36a16.63,16.63,0,0,0-1.31,2.53,5.3,5.3,0,0,0-.48,1.7,1.36,1.36,0,0,0,.92,1.29,15.07,15.07,0,0,0,3.69.77L231,37.52l-.77-.06a24.4,24.4,0,0,1-8-1.63c-1.7-.81-2.55-1.94-2.55-3.41a7.94,7.94,0,0,1,1-3,49.6,49.6,0,0,1,2.92-5.12l.27-.43a11.07,11.07,0,0,0,1.69-3.07.68.68,0,0,0-.28-.6,1.7,1.7,0,0,0-.88-.26c-1.31-.09-3.33.94-6.07,3.11a32.55,32.55,0,0,0-7.2,8.11c-.42.65-.88,1.45-1.37,2.39-.93,1.74-2.75,2.53-5.46,2.41a6.66,6.66,0,0,1-1.87-.26.68.68,0,0,1-.53-.64,1.57,1.57,0,0,1,.18-.62A8.18,8.18,0,0,1,202.68,33.46Z"/><path class="cls-1" d="M257.9,25.62a5.59,5.59,0,0,1-2.51-1.16,2.52,2.52,0,0,1-.86-1.93,3,3,0,0,1,1.32-2.61,4.67,4.67,0,0,1,3.34-.7,5.2,5.2,0,0,1,3.43,1.69,5.5,5.5,0,0,1,1.22,3.7,13.56,13.56,0,0,1-1.27,5.63,16.07,16.07,0,0,1-3.58,5,14.76,14.76,0,0,1-5.25,3.32,13.79,13.79,0,0,1-6.05.64,18.26,18.26,0,0,1-4.09-.85,9.42,9.42,0,0,1-3-1.61,29,29,0,0,1-4.53.77,36.05,36.05,0,0,1-5.12,0l1.32-3.06a23.1,23.1,0,0,0,3.27-.05,12.14,12.14,0,0,0,2.6-.49,7.7,7.7,0,0,1-.59-1.69,7.78,7.78,0,0,1-.2-1.83,10.53,10.53,0,0,1,1.51-5.26A14.52,14.52,0,0,1,243,20.58,16.52,16.52,0,0,1,248.48,18a15.81,15.81,0,0,1,5.92-.54,2.6,2.6,0,0,1,1.14.35.77.77,0,0,1,.41.65c0,.34-.53.82-1.6,1.44a23.39,23.39,0,0,0-2.46,1.59,22,22,0,0,0-5.23,5.58,10.73,10.73,0,0,0-1.82,5.65,2.84,2.84,0,0,0,.81,2.1,3.59,3.59,0,0,0,2.24,1q3.41.36,6.64-2.74A10.36,10.36,0,0,0,257.9,25.62Z"/><path class="cls-1" d="M261.1,40.6l1.25-3a7.87,7.87,0,0,0,5.87-1.54c1.6-1.26,3.06-3.44,4.37-6.56.59-1.42,1.22-3.16,1.87-5.21.93-2.88,2.33-4.19,4.21-3.91a21.78,21.78,0,0,1,3.77.79c.74.26,1.11.57,1.11.91a19.43,19.43,0,0,1-2.06,3.71c-1.38,2.2-2.59,4.37-3.64,6.48A43.84,43.84,0,0,1,287,24.73a10.81,10.81,0,0,1,7.1-1.47,6.3,6.3,0,0,1,3.12,1.32,3,3,0,0,1,1.16,2.35,6.42,6.42,0,0,1-1,2.74q-1,1.78-3.33,5c4.24-3.95,7.46-6.43,9.67-7.49a10.61,10.61,0,0,1,6.72-.92,8.07,8.07,0,0,1,3.68,1.58,3.23,3.23,0,0,1,1.34,2.54c0,1.12-1.36,3.82-4.11,8.15l-.52.84a15,15,0,0,0-1.2,2.31,5.23,5.23,0,0,0-.45,1.68,1.61,1.61,0,0,0,1,1.4,15.33,15.33,0,0,0,3.58,1.19c-.5,1.17-.74,1.75-1.23,2.92l-.39-.08A28.25,28.25,0,0,1,304,46.2c-1.7-1-2.55-2.21-2.55-3.68,0-1,.88-2.9,2.64-5.67.49-.8.88-1.41,1.17-1.85.8-1.33,1.33-2.26,1.59-2.77a3,3,0,0,0,.39-1.12.91.91,0,0,0-.2-.64,1.16,1.16,0,0,0-.65-.3c-1-.18-2.75.69-5.39,2.63A38.4,38.4,0,0,0,293.59,40a27,27,0,0,0-1.86,2.79,3.46,3.46,0,0,1-3.89,1.54,20.52,20.52,0,0,1-3.4-.75c-.64-.24-.95-.54-.95-.9A9.81,9.81,0,0,1,285,40c1-1.51,1.85-2.82,2.5-3.92,1.7-2.79,2.78-4.64,3.22-5.56a5.37,5.37,0,0,0,.67-2.06.91.91,0,0,0-.34-.74,2,2,0,0,0-.93-.39c-1.09-.18-3,.68-5.61,2.61A26.73,26.73,0,0,0,278,36.55c-.75,1.08-1.48,2.22-2.2,3.4a15.74,15.74,0,0,1-1.22,1.88,2.4,2.4,0,0,1-1.3.32,18.51,18.51,0,0,1-2.81-.24,6.69,6.69,0,0,1-1.82-.42c-.36-.16-.55-.38-.55-.65a3.42,3.42,0,0,1,.6-1.28,1.51,1.51,0,0,0,.13-.24,9.64,9.64,0,0,1-3.33,1.17A16.87,16.87,0,0,1,261.1,40.6Z"/><path class="cls-1" d="M325.15,49.13a44,44,0,0,1-6.28.33,44.43,44.43,0,0,1-6.35-.61c.51-1.17.77-1.75,1.29-2.91a36.15,36.15,0,0,0,4.13.39,27.53,27.53,0,0,0,3.66-.12,9.85,9.85,0,0,1-1.81-3.06,10.94,10.94,0,0,1-.58-3.64,8,8,0,0,1,4.41-7.24A13.89,13.89,0,0,1,334,31.11a10.67,10.67,0,0,1,5.27,2.71,6.14,6.14,0,0,1,1.94,4.47c0,1.84-.93,3.66-2.77,5.45A18.69,18.69,0,0,1,331,47.92a12.15,12.15,0,0,0,2.94,2,20.29,20.29,0,0,0,3.89,1.3l.45.1-1.25,2.87-.86-.2a36.16,36.16,0,0,1-6.32-2A20.06,20.06,0,0,1,325.15,49.13Zm3.31-4.23a12.24,12.24,0,0,0,5.62-3q2.28-2.17,2.28-4.2a2.32,2.32,0,0,0-.68-1.69,3.83,3.83,0,0,0-1.95-1A5,5,0,0,0,329,36.21,6.19,6.19,0,0,0,327,41.07a5.74,5.74,0,0,0,.35,2.06A5.51,5.51,0,0,0,328.46,44.9Z"/></g></g></svg>