<svg xmlns="http://www.w3.org/2000/svg" xmlns:xlink="http://www.w3.org/1999/xlink" viewBox="0 0 201.12 203"><defs><style>.cls-1{fill:#f15a24;}.cls-2{stroke:#f15a24;stroke-miterlimit:10;stroke-width:4px;fill:url(#Безымянный_градиент_17);}</style><linearGradient id="Безымянный_градиент_17" x1="2.34" y1="92.02" x2="198.91" y2="92.02" gradientUnits="userSpaceOnUse"><stop offset="0.11" stop-color="#999"/><stop offset="1"/></linearGradient></defs><g id="Слой_2" data-name="Слой 2"><g id="Слой_1-2" data-name="Слой 1"><path class="cls-1" d="M82.26,203q-36.11.31-58.69-6.7c-7-2.18-12.45-5.37-16.23-9.21a23.69,23.69,0,0,1-6.88-15.5C.12,165-.18,153.92.13,152.2c1.11-6,1.11-7.95,7.73-5,7.13,3.21,8,15.17,12.81,17.26s10.74,4.45,17.71,7.07a197.86,197.86,0,0,0,23.44,7,117.55,117.55,0,0,0,28.28,3q22.08-.2,35.82-6.33t13.6-18.71q-.12-12-9.12-18.1t-26.9-13.13L76.62,114.79Q62.12,109,50.15,103A60.55,60.55,0,0,1,30.88,88.33q-7.32-8.62-7.47-22c-.12-11-1.19-34.45,13.28-28.46,11.42,4.72,21.37-14,37.19-18.25s33.91-6.45,54.3-6.64q28.44-.24,42.5,1.9T189.22,21c3,2.64,9.65.36,9.69,3.92.06,5-6.16,14.19-8.4,16.79s-4.63,3.92-7.18,3.94a25.64,25.64,0,0,1-7.66-1.27q-4.26-1.29-11.93-3.37-6-1.82-19-4.24a140,140,0,0,0-27-2.3q-18.27.16-30.73,6.16T74.73,58.39q.12,11,9.53,17.16t25.18,10.87l23.44,6.75a298.8,298.8,0,0,1,30.91,10.42q14.29,5.75,23.11,14.9c5.86,6.1,14.11.68,14.22,10.84.21,18.9-15.22,47.11-35.77,57.54S117.09,202.68,82.26,203Z"/><path class="cls-2" d="M84,182q-36.33,0-59-6.85T2.34,157.4q0-8.37,2.14-11.93t7.26-3.56q3.42,0,10.69,3.05t17.73,6.86a206,206,0,0,0,23.5,6.85,124.84,124.84,0,0,0,28.42,3.05q22.22,0,36.11-5.71t13.89-17.65q0-11.43-9-17.27T106.18,108.4L79.26,98.24Q64.72,92.66,52.77,86.81A60.5,60.5,0,0,1,33.54,72.72q-7.27-8.25-7.27-20.95Q26.27,36,40,24.85t37.6-17Q101.48,2,132.25,2,160.87,2,175,4.16t18.59,6q4.49,3.81,4.49,8.88c0,4.74-1.15,8.34-3.42,10.8s-4.7,3.68-7.27,3.68a27.17,27.17,0,0,1-7.69-1.27q-4.27-1.27-12-3.3-6-1.79-19-4.19a148.68,148.68,0,0,0-27.14-2.42q-18.37,0-31,5.59T78,44.66Q78,55.07,87.38,61t25.21,10.54l23.5,6.6a313.1,313.1,0,0,1,31,10.16q14.31,5.58,23.07,14.34t8.76,23.24q0,26.91-31.19,41.51T84,182Z"/><path class="cls-1" d="M45.83,75a11.46,11.46,0,0,1-4.27-2.91,2.22,2.22,0,0,1-.33-2.84,3.89,3.89,0,0,1,1-1,1,1,0,0,1,1-.2,1,1,0,0,1,.32.22A6.9,6.9,0,0,1,44,69a12.15,12.15,0,0,0,1.25,1.58A11.87,11.87,0,0,0,46.89,72a9.15,9.15,0,0,0,1.75,1.07,3.4,3.4,0,0,0,2.21.33,2.6,2.6,0,0,0,1.5-1.08,1.35,1.35,0,0,0,.23-1.22,6.41,6.41,0,0,0-.83-1.58l-1.59-2.41a10.71,10.71,0,0,1-1.44-2.9,3.26,3.26,0,0,1,.59-2.89,5.94,5.94,0,0,1,4.33-2.5,11.84,11.84,0,0,1,6.54,1.23,11.49,11.49,0,0,1,3.48,2.11,1.44,1.44,0,0,1,.2,2,4.07,4.07,0,0,1-1.23,1.22,1.22,1.22,0,0,1-1.19.18,1.63,1.63,0,0,1-.38-.25,2.38,2.38,0,0,1-.35-.37q-.21-.3-.69-.9a10.81,10.81,0,0,0-1.16-1.22,5.89,5.89,0,0,0-1.59-1,2.88,2.88,0,0,0-1.8-.24,2.09,2.09,0,0,0-1.39.92,1.4,1.4,0,0,0-.23,1.25,5.09,5.09,0,0,0,1,1.59l1.93,2.14a7.92,7.92,0,0,1,1.68,2.63,3.16,3.16,0,0,1-.65,2.9,6.86,6.86,0,0,1-3.31,2.65,9.4,9.4,0,0,1-4.28.52A13.86,13.86,0,0,1,45.83,75Z"/><path class="cls-1" d="M57.76,80.28a1.24,1.24,0,0,1-.66-.53c-.09-.2,0-.5.28-.91A23.08,23.08,0,0,1,58.85,77l10.43-12c1-1.15,2-2.28,3.12-3.39a42,42,0,0,0,3-3.45l2.8,1.26a1.1,1.1,0,0,1,.58,1.4,5.26,5.26,0,0,1-.83,2,14.19,14.19,0,0,1-1,1.24,15,15,0,0,1-1,1.07q-.57.54-1.5,1.35l-9,8.31,2.23-.73c-1.14,1.3-2.17,2.53-3.12,3.71s-1.72,2.13-2.32,2.85c-.14.21-.52.31-1.12.3a10.27,10.27,0,0,1-1.86-.23A7.52,7.52,0,0,1,57.76,80.28Zm12,5.21a.55.55,0,0,1-.3-.58,2.12,2.12,0,0,1,.22-.89A3.87,3.87,0,0,1,70,83.3c.21-.3.5-.67.88-1.12s.78-.92,1.23-1.42.83-.91,1.18-1.26l3-3c.37-.4.73-.77,1.07-1.11a8.43,8.43,0,0,0,.95-1.15,1.23,1.23,0,0,0,.27-.86.74.74,0,0,0-.47-.54,4.87,4.87,0,0,0-2.24,0A21.22,21.22,0,0,0,71.8,74a26.49,26.49,0,0,0-4.91,2.5,21,21,0,0,0-4.71,4.16l2.32-5.3A34.2,34.2,0,0,1,72.28,71a20.53,20.53,0,0,1,6.24-1.39,9.62,9.62,0,0,1,4.2.6c1.17.52,1.84,1.18,2,2a3.2,3.2,0,0,1-.64,2.48,12.06,12.06,0,0,1-1.16,1.42L81.5,77.56l-8.84,9.25Z"/><path class="cls-1" d="M83.85,92.09a3.16,3.16,0,0,1-2-2.23,5.19,5.19,0,0,1,.76-3.52l4.07-7.63a13.35,13.35,0,0,0,.77-1.62,4.45,4.45,0,0,0,.37-1.42,2.49,2.49,0,0,0,0-.84.61.61,0,0,1,.1-.53,1,1,0,0,1,.81-.29,7.43,7.43,0,0,1,1.45.06,11.32,11.32,0,0,1,1.58.29,6.5,6.5,0,0,1,1.2.39,1.18,1.18,0,0,1,.74,1.13,7,7,0,0,1-1,2.73l-4.58,8.67a4.12,4.12,0,0,0-.55,1.61.82.82,0,0,0,.52.87,3.26,3.26,0,0,0,1.54.1,8.69,8.69,0,0,0,2.64-.8,13.89,13.89,0,0,0,3.32-2.22,21.55,21.55,0,0,0,3.6-4.17,2.7,2.7,0,0,0,.55-1.31,1.72,1.72,0,0,1,.25-.86,1.42,1.42,0,0,1,.89-.45,6.1,6.1,0,0,1,1.54-.15A12.58,12.58,0,0,1,104,80a4.62,4.62,0,0,1,1.2.28,2,2,0,0,1,.8.66c.22.29.12.74-.29,1.34a19.26,19.26,0,0,1-3,3.29,33.83,33.83,0,0,1-4.31,3.28,29.75,29.75,0,0,1-5,2.6,18.06,18.06,0,0,1-5.08,1.31A8.66,8.66,0,0,1,83.85,92.09Z"/><path class="cls-1" d="M102.9,100.66Q99.82,99.28,99.21,97a6.15,6.15,0,0,1,1.28-5.07A16,16,0,0,1,104.16,88a15.6,15.6,0,0,1,4.52-2.31,14.12,14.12,0,0,1,4.89-.68,12.85,12.85,0,0,1,4.75,1.12A7,7,0,0,1,121.85,89a3.1,3.1,0,0,1-.4,3.33,6.16,6.16,0,0,1-3.58,2.44,16.27,16.27,0,0,1-5.76.38,49.57,49.57,0,0,1-7.62-1.36l.8-2.18a25.26,25.26,0,0,0,4.58,1,11.17,11.17,0,0,0,4-.14,4.23,4.23,0,0,0,2.62-1.68,2.14,2.14,0,0,0,.49-1.51c-.08-.43-.48-.8-1.2-1.13a5.14,5.14,0,0,0-3.44-.28,9.4,9.4,0,0,0-3.45,1.75,13.87,13.87,0,0,0-2.84,3c-1.07,1.57-1.49,2.76-1.25,3.55a3.46,3.46,0,0,0,2.12,2,11,11,0,0,0,3.54,1,23.36,23.36,0,0,0,3.06.09c.28,0,.53,0,.73,0a1.3,1.3,0,0,1,.47.09.33.33,0,0,1,.23.27.42.42,0,0,1-.08.34,3.42,3.42,0,0,1-1.57,1.07,10.78,10.78,0,0,1-2.86.7,15.21,15.21,0,0,1-3.63,0A12.61,12.61,0,0,1,102.9,100.66Z"/><path class="cls-1" d="M118.64,107.73c-1.29-.57-2-1.28-2.09-2.12s.38-1.86,1.45-3.06l8.31-9.15L125,92.82c-.4-.18-.49-.44-.25-.79a2.8,2.8,0,0,1,1.18-.69c.64-.25,1.41-.49,2.31-.74s1.81-.45,2.72-.63a20.56,20.56,0,0,1,2.42-.37,3.37,3.37,0,0,1,1.46.08c.3.14.43.32.41.55a1.29,1.29,0,0,1-.39.73l-2.11,2.39,4.48,2c.4.17.6.33.59.47s-.14.3-.41.49a4.6,4.6,0,0,1-1.82.94,4,4,0,0,1-1.71-.45l-3.2-1.44L125,101.84c-.34.38-.65.75-.94,1.1s-.54.67-.75,1a1.29,1.29,0,0,0-.28,1.25,2.37,2.37,0,0,0,1.24,1,4.65,4.65,0,0,0,1.88.42,3.24,3.24,0,0,1,1.2.12c.21.09.25.25.1.46a2.74,2.74,0,0,1-1,.72,8.32,8.32,0,0,1-2,.62,10,10,0,0,1-2.71.09A9.24,9.24,0,0,1,118.64,107.73Z"/><path class="cls-1" d="M133.45,114.39a11.35,11.35,0,0,1-4.27-2.91,2.22,2.22,0,0,1-.33-2.83,3.77,3.77,0,0,1,1-1,1,1,0,0,1,1-.2,1.07,1.07,0,0,1,.32.23,5.48,5.48,0,0,1,.51.69,12.33,12.33,0,0,0,1.25,1.58,12.64,12.64,0,0,0,1.62,1.47,8.85,8.85,0,0,0,1.76,1.06,3.37,3.37,0,0,0,2.2.34,2.54,2.54,0,0,0,1.5-1.08,1.4,1.4,0,0,0,.24-1.23,7.16,7.16,0,0,0-.83-1.57l-1.6-2.41a11.54,11.54,0,0,1-1.44-2.91,3.23,3.23,0,0,1,.59-2.88,6,6,0,0,1,4.33-2.51,12,12,0,0,1,6.54,1.23,11.7,11.7,0,0,1,3.48,2.11,1.43,1.43,0,0,1,.2,2,4.11,4.11,0,0,1-1.23,1.23,1.27,1.27,0,0,1-1.19.18,1.72,1.72,0,0,1-.38-.26,2,2,0,0,1-.35-.37q-.21-.3-.69-.9a11.74,11.74,0,0,0-1.16-1.22,6,6,0,0,0-1.59-1,2.88,2.88,0,0,0-1.8-.24,2.12,2.12,0,0,0-1.39.92,1.4,1.4,0,0,0-.23,1.25,5.09,5.09,0,0,0,1,1.59l1.94,2.14a8,8,0,0,1,1.67,2.63,3.16,3.16,0,0,1-.65,2.9,6.81,6.81,0,0,1-3.31,2.65,9.4,9.4,0,0,1-4.28.53A13.88,13.88,0,0,1,133.45,114.39Z"/><path class="cls-1" d="M151,122.26c-2.3-1-3.7-2.38-4.23-4s-.06-3.55,1.39-5.66a13.17,13.17,0,0,1,3.52-3.5,15.92,15.92,0,0,1,4.5-2.1,15,15,0,0,1,4.87-.57,12.46,12.46,0,0,1,4.63,1.08q3.43,1.55,4.13,4c.46,1.64-.06,3.57-1.58,5.79a13.2,13.2,0,0,1-3.4,3.39,15.42,15.42,0,0,1-4.39,2.09,14.71,14.71,0,0,1-4.8.58A12.56,12.56,0,0,1,151,122.26Zm2.62-2a4.9,4.9,0,0,0,3.24.27,8.68,8.68,0,0,0,3.39-1.73,15.21,15.21,0,0,0,3-3.29,7.33,7.33,0,0,0,1.5-3.68,2.47,2.47,0,0,0-1.74-2.39,5.07,5.07,0,0,0-3.24-.27,8.87,8.87,0,0,0-3.46,1.68,13.87,13.87,0,0,0-3.06,3.29,6.54,6.54,0,0,0-1.45,3.79A2.68,2.68,0,0,0,153.66,120.27Z"/><path class="cls-1" d="M169.59,130.64a3.17,3.17,0,0,1-2-2.23,5.19,5.19,0,0,1,.76-3.52l4.07-7.63a13.35,13.35,0,0,0,.77-1.62,4.52,4.52,0,0,0,.37-1.42,2.55,2.55,0,0,0-.05-.85.59.59,0,0,1,.1-.52,1.06,1.06,0,0,1,.81-.3,9.43,9.43,0,0,1,1.45.06,13.36,13.36,0,0,1,1.58.29,8.49,8.49,0,0,1,1.2.39,1.2,1.2,0,0,1,.74,1.14,7,7,0,0,1-1,2.73l-4.58,8.67a4.12,4.12,0,0,0-.55,1.61.82.82,0,0,0,.52.87,3.36,3.36,0,0,0,1.53.1,8.65,8.65,0,0,0,2.65-.8,13.89,13.89,0,0,0,3.32-2.22,21.34,21.34,0,0,0,3.6-4.18,2.63,2.63,0,0,0,.55-1.31,1.68,1.68,0,0,1,.25-.86,1.47,1.47,0,0,1,.89-.44,6.51,6.51,0,0,1,1.54-.16c.57,0,1.12,0,1.65.11a4.36,4.36,0,0,1,1.19.29,2,2,0,0,1,.81.66c.22.29.12.74-.29,1.34a19.26,19.26,0,0,1-3,3.29,32.89,32.89,0,0,1-4.31,3.27,30.19,30.19,0,0,1-5,2.61,18.06,18.06,0,0,1-5.08,1.31A8.78,8.78,0,0,1,169.59,130.64Z"/></g></g></svg>